<svg width="28" height="27" viewBox="0 0 28 27" fill="none" xmlns="http://www.w3.org/2000/svg">
    <path fill-rule="evenodd" clip-rule="evenodd"
          d="M14.0003 0C6.64033 0 0.666992 5.97333 0.666992 13.3333C0.666992 20.6933 6.64033 26.6667 14.0003 26.6667C21.3603 26.6667 27.3337 20.6933 27.3337 13.3333C27.3337 5.97333 21.3603 0 14.0003 0ZM14.0003 4.6665C16.2137 4.6665 18.0003 6.45317 18.0003 8.6665C18.0003 10.8798 16.2137 12.6665 14.0003 12.6665C11.787 12.6665 10.0003 10.8798 10.0003 8.6665C10.0003 6.45317 11.787 4.6665 14.0003 4.6665ZM14.0003 23.5998C10.667 23.5998 7.72033 21.8932 6.00033 19.3065C6.04033 16.6532 11.3337 15.1998 14.0003 15.1998C16.6537 15.1998 21.9603 16.6532 22.0003 19.3065C20.2803 21.8932 17.3337 23.5998 14.0003 23.5998Z"
          fill="#FFFFFF"/>
</svg>
